# xmcd CD database file
#
# Track frame offsets:
#	150
#	38227
#	54410
#	76560
#	120522
#	145230
#	159050
#	207205
#	233860
#	243997
#	289025
#	305902
#
# Disc length: 4743 seconds
#
# Revision: 0
# Processed by: cddbd v1.5.1PL0 Copyright (c) Steve Scherf et al.
# Submitted via: CDex 1.51
#
DISCID=9712850c
DTITLE=George Gershwin - Paul Whiteman Conducts Gershwin
DYEAR=1938
DGENRE=Jazz
TTITLE0=Rhapsody in Blue
TTITLE1=Dawn of a New Day
TTITLE2=Medley
TTITLE3=Second Rhapsody
TTITLE4=Medley
TTITLE5=Mischa Jascha Toscha Sascha
TTITLE6=American in Paris
TTITLE7=Medley
TTITLE8=Can't Take That Away From Me
TTITLE9=Cuban Overture
TTITLE10=Summertime
TTITLE11=Rhapsody in Blue
EXTD=YEAR: 1938
EXTT0=
EXTT1=
EXTT2=
EXTT3=
EXTT4=
EXTT5=
EXTT6=
EXTT7=
EXTT8=
EXTT9=
EXTT10=
EXTT11=
PLAYORDER=
